<mxfile host="app.diagrams.net" modified="2023-07-03T18:56:00.544Z" agent="Mozilla/5.0 (X11; Ubuntu; Linux x86_64; rv:109.0) Gecko/20100101 Firefox/114.0" etag="K2-UXBiz0XZXPabVy0ib" version="21.5.2" type="device">
  <diagram name="Page-1" id="WrtmoV9ny_IJdTC_MbwY">
    <mxGraphModel dx="899" dy="519" grid="1" gridSize="10" guides="1" tooltips="1" connect="1" arrows="1" fold="1" page="1" pageScale="1" pageWidth="850" pageHeight="1100" math="0" shadow="0">
      <root>
        <mxCell id="0" />
        <mxCell id="1" parent="0" />
        <mxCell id="uwwBJBZ8vMVv8G7QtI5B-62" value="&lt;font style=&quot;font-size: 16px;&quot; face=&quot;Courier New&quot;&gt;1x1&lt;br&gt;&lt;/font&gt;" style="rounded=1;whiteSpace=wrap;html=1;opacity=60;fillColor=#1ba1e2;fontColor=#ffffff;strokeColor=#006EAF;" parent="1" vertex="1">
          <mxGeometry x="350" y="80" width="120" height="30" as="geometry" />
        </mxCell>
        <mxCell id="uwwBJBZ8vMVv8G7QtI5B-63" value="" style="endArrow=classic;html=1;rounded=0;fillColor=#1ba1e2;strokeColor=#006EAF;strokeWidth=3;" parent="1" edge="1">
          <mxGeometry width="50" height="50" relative="1" as="geometry">
            <mxPoint x="410" y="50" as="sourcePoint" />
            <mxPoint x="409.5" y="80" as="targetPoint" />
          </mxGeometry>
        </mxCell>
        <mxCell id="uwwBJBZ8vMVv8G7QtI5B-64" value="&lt;font style=&quot;font-size: 16px;&quot; face=&quot;Courier New&quot;&gt;3x3&lt;br&gt;&lt;/font&gt;" style="rounded=1;whiteSpace=wrap;html=1;opacity=60;fillColor=#1ba1e2;fontColor=#ffffff;strokeColor=#006EAF;" parent="1" vertex="1">
          <mxGeometry x="350" y="140" width="120" height="30" as="geometry" />
        </mxCell>
        <mxCell id="uwwBJBZ8vMVv8G7QtI5B-65" value="" style="endArrow=classic;html=1;rounded=0;fillColor=#1ba1e2;strokeColor=#006EAF;strokeWidth=3;" parent="1" edge="1">
          <mxGeometry width="50" height="50" relative="1" as="geometry">
            <mxPoint x="410" y="110" as="sourcePoint" />
            <mxPoint x="409.5" y="140" as="targetPoint" />
          </mxGeometry>
        </mxCell>
        <mxCell id="uwwBJBZ8vMVv8G7QtI5B-66" value="&lt;font style=&quot;font-size: 16px;&quot; face=&quot;Courier New&quot;&gt;1x1&lt;br&gt;&lt;/font&gt;" style="rounded=1;whiteSpace=wrap;html=1;opacity=60;fillColor=#1ba1e2;fontColor=#ffffff;strokeColor=#006EAF;" parent="1" vertex="1">
          <mxGeometry x="350" y="200" width="120" height="30" as="geometry" />
        </mxCell>
        <mxCell id="uwwBJBZ8vMVv8G7QtI5B-67" value="" style="endArrow=classic;html=1;rounded=0;fillColor=#1ba1e2;strokeColor=#006EAF;strokeWidth=3;" parent="1" edge="1">
          <mxGeometry width="50" height="50" relative="1" as="geometry">
            <mxPoint x="410" y="170" as="sourcePoint" />
            <mxPoint x="409.5" y="200" as="targetPoint" />
          </mxGeometry>
        </mxCell>
        <mxCell id="uwwBJBZ8vMVv8G7QtI5B-69" value="" style="endArrow=classic;html=1;rounded=0;fillColor=#1ba1e2;strokeColor=#006EAF;strokeWidth=3;" parent="1" edge="1">
          <mxGeometry width="50" height="50" relative="1" as="geometry">
            <mxPoint x="410" y="230" as="sourcePoint" />
            <mxPoint x="409.5" y="260" as="targetPoint" />
          </mxGeometry>
        </mxCell>
        <mxCell id="uwwBJBZ8vMVv8G7QtI5B-73" value="&lt;font style=&quot;font-size: 16px;&quot; face=&quot;Courier New&quot;&gt;x&lt;/font&gt;" style="text;html=1;strokeColor=none;fillColor=none;align=center;verticalAlign=middle;whiteSpace=wrap;rounded=0;fontColor=#FFFFFF;" parent="1" vertex="1">
          <mxGeometry x="380" y="20" width="60" height="30" as="geometry" />
        </mxCell>
        <mxCell id="uwwBJBZ8vMVv8G7QtI5B-75" value="&lt;font style=&quot;font-size: 16px;&quot; face=&quot;Courier New&quot;&gt;+&lt;/font&gt;" style="ellipse;whiteSpace=wrap;html=1;aspect=fixed;fillColor=#1ba1e2;fontColor=#ffffff;strokeColor=#006EAF;opacity=60;" parent="1" vertex="1">
          <mxGeometry x="400" y="260" width="20" height="20" as="geometry" />
        </mxCell>
        <mxCell id="uwwBJBZ8vMVv8G7QtI5B-77" value="" style="endArrow=classic;html=1;rounded=0;fillColor=#1ba1e2;strokeColor=#006EAF;strokeWidth=3;" parent="1" edge="1">
          <mxGeometry width="50" height="50" relative="1" as="geometry">
            <mxPoint x="410" y="280" as="sourcePoint" />
            <mxPoint x="409.5" y="310" as="targetPoint" />
          </mxGeometry>
        </mxCell>
        <mxCell id="uwwBJBZ8vMVv8G7QtI5B-84" value="&lt;font style=&quot;font-size: 16px;&quot; face=&quot;Courier New&quot;&gt;C&lt;sub&gt;in&lt;/sub&gt;&lt;/font&gt;" style="text;html=1;strokeColor=none;fillColor=none;align=center;verticalAlign=middle;whiteSpace=wrap;rounded=0;fontColor=#FFFFFF;" parent="1" vertex="1">
          <mxGeometry x="350" y="50" width="60" height="30" as="geometry" />
        </mxCell>
        <mxCell id="uwwBJBZ8vMVv8G7QtI5B-85" value="&lt;font style=&quot;font-size: 16px;&quot; face=&quot;Courier New&quot;&gt;C&lt;sub&gt;red&lt;/sub&gt;&lt;/font&gt;" style="text;html=1;strokeColor=none;fillColor=none;align=center;verticalAlign=middle;whiteSpace=wrap;rounded=0;fontColor=#FFFFFF;" parent="1" vertex="1">
          <mxGeometry x="350" y="110" width="60" height="30" as="geometry" />
        </mxCell>
        <mxCell id="uwwBJBZ8vMVv8G7QtI5B-86" value="&lt;font style=&quot;font-size: 16px;&quot; face=&quot;Courier New&quot;&gt;C&lt;sub&gt;red&lt;/sub&gt;&lt;/font&gt;" style="text;html=1;strokeColor=none;fillColor=none;align=center;verticalAlign=middle;whiteSpace=wrap;rounded=0;fontColor=#FFFFFF;" parent="1" vertex="1">
          <mxGeometry x="350" y="170" width="60" height="30" as="geometry" />
        </mxCell>
        <mxCell id="uwwBJBZ8vMVv8G7QtI5B-87" value="&lt;font style=&quot;font-size: 16px;&quot; face=&quot;Courier New&quot;&gt;C&lt;sub&gt;in&lt;/sub&gt;&lt;/font&gt;" style="text;html=1;strokeColor=none;fillColor=none;align=center;verticalAlign=middle;whiteSpace=wrap;rounded=0;fontColor=#FFFFFF;" parent="1" vertex="1">
          <mxGeometry x="350" y="230" width="60" height="30" as="geometry" />
        </mxCell>
        <mxCell id="uwwBJBZ8vMVv8G7QtI5B-88" value="&lt;font style=&quot;font-size: 16px;&quot; face=&quot;Courier New&quot;&gt;3x3&lt;br&gt;&lt;/font&gt;" style="rounded=1;whiteSpace=wrap;html=1;opacity=60;fillColor=#1ba1e2;fontColor=#ffffff;strokeColor=#006EAF;" parent="1" vertex="1">
          <mxGeometry x="90" y="80" width="120" height="30" as="geometry" />
        </mxCell>
        <mxCell id="uwwBJBZ8vMVv8G7QtI5B-89" value="" style="endArrow=classic;html=1;rounded=0;fillColor=#1ba1e2;strokeColor=#006EAF;strokeWidth=3;" parent="1" edge="1">
          <mxGeometry width="50" height="50" relative="1" as="geometry">
            <mxPoint x="150" y="50" as="sourcePoint" />
            <mxPoint x="149.5" y="80" as="targetPoint" />
          </mxGeometry>
        </mxCell>
        <mxCell id="uwwBJBZ8vMVv8G7QtI5B-90" value="&lt;font style=&quot;font-size: 16px;&quot; face=&quot;Courier New&quot;&gt;3x3&lt;br&gt;&lt;/font&gt;" style="rounded=1;whiteSpace=wrap;html=1;opacity=60;fillColor=#1ba1e2;fontColor=#ffffff;strokeColor=#006EAF;" parent="1" vertex="1">
          <mxGeometry x="90" y="140" width="120" height="30" as="geometry" />
        </mxCell>
        <mxCell id="uwwBJBZ8vMVv8G7QtI5B-91" value="" style="endArrow=classic;html=1;rounded=0;fillColor=#1ba1e2;strokeColor=#006EAF;strokeWidth=3;" parent="1" edge="1">
          <mxGeometry width="50" height="50" relative="1" as="geometry">
            <mxPoint x="150" y="110" as="sourcePoint" />
            <mxPoint x="149.5" y="140" as="targetPoint" />
          </mxGeometry>
        </mxCell>
        <mxCell id="uwwBJBZ8vMVv8G7QtI5B-93" value="" style="endArrow=classic;html=1;rounded=0;fillColor=#1ba1e2;strokeColor=#006EAF;strokeWidth=3;" parent="1" edge="1">
          <mxGeometry width="50" height="50" relative="1" as="geometry">
            <mxPoint x="150" y="170" as="sourcePoint" />
            <mxPoint x="149.5" y="200" as="targetPoint" />
          </mxGeometry>
        </mxCell>
        <mxCell id="uwwBJBZ8vMVv8G7QtI5B-95" value="&lt;font style=&quot;font-size: 16px;&quot; face=&quot;Courier New&quot;&gt;x&lt;/font&gt;" style="text;html=1;strokeColor=none;fillColor=none;align=center;verticalAlign=middle;whiteSpace=wrap;rounded=0;fontColor=#FFFFFF;" parent="1" vertex="1">
          <mxGeometry x="120" y="20" width="60" height="30" as="geometry" />
        </mxCell>
        <mxCell id="uwwBJBZ8vMVv8G7QtI5B-97" value="&lt;font style=&quot;font-size: 16px;&quot; face=&quot;Courier New&quot;&gt;+&lt;/font&gt;" style="ellipse;whiteSpace=wrap;html=1;aspect=fixed;fillColor=#1ba1e2;fontColor=#ffffff;strokeColor=#006EAF;opacity=60;" parent="1" vertex="1">
          <mxGeometry x="140" y="200" width="20" height="20" as="geometry" />
        </mxCell>
        <mxCell id="uwwBJBZ8vMVv8G7QtI5B-98" value="" style="endArrow=classic;html=1;rounded=0;fillColor=#1ba1e2;strokeColor=#006EAF;strokeWidth=3;" parent="1" edge="1">
          <mxGeometry width="50" height="50" relative="1" as="geometry">
            <mxPoint x="150" y="220" as="sourcePoint" />
            <mxPoint x="149.5" y="250" as="targetPoint" />
          </mxGeometry>
        </mxCell>
        <mxCell id="uwwBJBZ8vMVv8G7QtI5B-99" value="&lt;font style=&quot;font-size: 16px;&quot; face=&quot;Courier New&quot;&gt;C&lt;sub&gt;in&lt;/sub&gt;&lt;/font&gt;" style="text;html=1;strokeColor=none;fillColor=none;align=center;verticalAlign=middle;whiteSpace=wrap;rounded=0;fontColor=#FFFFFF;" parent="1" vertex="1">
          <mxGeometry x="90" y="50" width="60" height="30" as="geometry" />
        </mxCell>
        <mxCell id="uwwBJBZ8vMVv8G7QtI5B-101" value="&lt;font style=&quot;font-size: 16px;&quot; face=&quot;Courier New&quot;&gt;C&lt;sub&gt;in&lt;/sub&gt;&lt;/font&gt;" style="text;html=1;strokeColor=none;fillColor=none;align=center;verticalAlign=middle;whiteSpace=wrap;rounded=0;fontColor=#FFFFFF;" parent="1" vertex="1">
          <mxGeometry x="90" y="170" width="60" height="30" as="geometry" />
        </mxCell>
        <mxCell id="uwwBJBZ8vMVv8G7QtI5B-103" value="&lt;font style=&quot;font-size: 16px;&quot; face=&quot;Courier New&quot;&gt;C&lt;/font&gt;" style="text;html=1;strokeColor=none;fillColor=none;align=center;verticalAlign=middle;whiteSpace=wrap;rounded=0;fontColor=#FFFFFF;" parent="1" vertex="1">
          <mxGeometry x="90" y="110" width="60" height="30" as="geometry" />
        </mxCell>
        <mxCell id="uGLiEtxfueaO757Q-Wy1-1" value="" style="endArrow=classic;html=1;rounded=0;fillColor=#1ba1e2;strokeColor=#006EAF;strokeWidth=3;entryX=1;entryY=0.5;entryDx=0;entryDy=0;" edge="1" parent="1" target="uwwBJBZ8vMVv8G7QtI5B-97">
          <mxGeometry width="50" height="50" relative="1" as="geometry">
            <mxPoint x="150" y="60" as="sourcePoint" />
            <mxPoint x="160" y="450" as="targetPoint" />
            <Array as="points">
              <mxPoint x="240" y="60" />
              <mxPoint x="240" y="210" />
            </Array>
          </mxGeometry>
        </mxCell>
        <mxCell id="uGLiEtxfueaO757Q-Wy1-2" value="" style="endArrow=classic;html=1;rounded=0;fillColor=#1ba1e2;strokeColor=#006EAF;strokeWidth=3;entryX=1;entryY=0.5;entryDx=0;entryDy=0;" edge="1" parent="1" target="uwwBJBZ8vMVv8G7QtI5B-75">
          <mxGeometry width="50" height="50" relative="1" as="geometry">
            <mxPoint x="410" y="60" as="sourcePoint" />
            <mxPoint x="420" y="210" as="targetPoint" />
            <Array as="points">
              <mxPoint x="500" y="60" />
              <mxPoint x="500" y="270" />
            </Array>
          </mxGeometry>
        </mxCell>
      </root>
    </mxGraphModel>
  </diagram>
</mxfile>
